<svg width="24" height="18" viewBox="0 0 24 18" fill="none" xmlns="http://www.w3.org/2000/svg">
<g clip-path="url(#clip0_50_306)">
<path d="M1 6V1H23V0H24V1H23V6H1Z" fill="#EFEFEF"/>
<path d="M1 6H0V0H23V1H1V6Z" fill="white"/>
<path d="M23 6V1H24V6H23Z" fill="#808080"/>
<path d="M1 12V6H23V12H1Z" fill="#008080"/>
<path d="M23 12V6H24V12H23Z" fill="#324E4E"/>
<path d="M1 17V12H23V17H1V18H0V17H1Z" fill="#FF8080"/>
<path d="M1 18V17H23V12H24V18H1Z" fill="#8D5C5C"/>
<path d="M1 6H0V12H1V6Z" fill="#6DBCBC"/>
<path d="M1 12H0V17H1V12Z" fill="#FFD5D5"/>
</g>
<defs>
<clipPath id="clip0_50_306">
<rect width="24" height="18" fill="white"/>
</clipPath>
</defs>
</svg>
