<svg width="24" height="18" viewBox="0 0 24 18" fill="none" xmlns="http://www.w3.org/2000/svg">
<g clip-path="url(#clip0_52_102)">
<path d="M1 6V1H23V0H24V1H23V6H1Z" fill="#FF0000"/>
<path d="M23 6H24V1H23V6Z" fill="#8D5C5C"/>
<path d="M1 6H0V0H23V1H1V6Z" fill="#FF8080"/>
<path d="M12 1V5H13V4H14V5H15V1H14V3H13V1H12Z" fill="black"/>
<path d="M16 4V1H17V4H18V1H19V4H18V5H17V4H16Z" fill="black"/>
<path d="M20 1V5H21V1H20Z" fill="black"/>
<path d="M22 1V5H23V1H22Z" fill="black"/>
<path d="M16 4V5H17V4H16Z" fill="#800000"/>
<path d="M18 4V5H19V4H18Z" fill="#800000"/>
<path d="M21 2V4H22V2H21Z" fill="#800000"/>
<path d="M1 6V12H23V6H1Z" fill="#EFEFEF"/>
<path d="M1 12H0V6H1V12Z" fill="white"/>
<path d="M23 6V12H24V6H23Z" fill="#808080"/>
<path d="M1 17H0V12H1V17Z" fill="#4AB565"/>
<path d="M1 12V17H23V12H1Z" fill="#008000"/>
<path d="M1 17V18H24V12H23V17H1Z" fill="#324E4E"/>
<path d="M0 17V18H1V17H0Z" fill="#008080"/>
</g>
<defs>
<clipPath id="clip0_52_102">
<rect width="24" height="18" fill="white"/>
</clipPath>
</defs>
</svg>
