<svg width="24" height="24" viewBox="0 0 24 24" fill="none" xmlns="http://www.w3.org/2000/svg">
<g clip-path="url(#clip0_64_181)">
<g filter="url(#filter0_d_64_181)">
<path d="M1 10V16H16L17 15H23V11L22 10H16.5L13 6H5L1 10Z" fill="black"/>
</g>
<path d="M5 7L2 10H5V7Z" fill="white"/>
<path d="M6 7V10H10V7H6Z" fill="white"/>
<path d="M11 7V10H15.5L13 7H11Z" fill="white"/>
<path d="M10 10V14H11V10H10Z" fill="#808080"/>
<path d="M12 11V12H13V11H12Z" fill="#808080"/>
<path d="M5.5 12C7.433 12 9 13.567 9 15.5C9 15.6698 8.98723 15.8367 8.96387 16H2.03613C2.01277 15.8367 2 15.6698 2 15.5C2 13.567 3.567 12 5.5 12Z" fill="#808080"/>
<circle cx="5.5" cy="15.5" r="2.5" fill="black"/>
<path d="M5 15V16H6V15H5Z" fill="#808080"/>
<path d="M18.5 12C20.2632 12 21.7212 13.3039 21.9639 15H18V16H15.0361C15.0128 15.8367 15 15.6698 15 15.5C15 13.567 16.567 12 18.5 12Z" fill="#D9D9D9" fill-opacity="0.5"/>
<circle cx="18.5" cy="15.5" r="2.5" fill="black"/>
<path d="M18 15V16H19V15H18Z" fill="#808080"/>
</g>
<defs>
<filter id="filter0_d_64_181" x="1" y="4" width="24" height="12" filterUnits="userSpaceOnUse" color-interpolation-filters="sRGB">
<feFlood flood-opacity="0" result="BackgroundImageFix"/>
<feColorMatrix in="SourceAlpha" type="matrix" values="0 0 0 0 0 0 0 0 0 0 0 0 0 0 0 0 0 0 127 0" result="hardAlpha"/>
<feOffset dx="1" dy="-1"/>
<feGaussianBlur stdDeviation="0.5"/>
<feComposite in2="hardAlpha" operator="out"/>
<feColorMatrix type="matrix" values="0 0 0 0 0 0 0 0 0 0 0 0 0 0 0 0 0 0 0.5 0"/>
<feBlend mode="normal" in2="BackgroundImageFix" result="effect1_dropShadow_64_181"/>
<feBlend mode="normal" in="SourceGraphic" in2="effect1_dropShadow_64_181" result="shape"/>
</filter>
<clipPath id="clip0_64_181">
<rect width="24" height="24" fill="white"/>
</clipPath>
</defs>
</svg>
