<svg width="24" height="24" viewBox="0 0 24 24" fill="none" xmlns="http://www.w3.org/2000/svg">
<g clip-path="url(#clip0_61_599)">
<g filter="url(#filter0_d_61_599)">
<path d="M16.1699 20.8154L14.3301 18.9746L11.9736 21.3311L11.9854 21.3428L11.7734 21.5527V24H11.2266V21.3516L10.5879 20.7139L10.585 20.7168L8.82715 18.959L6.9707 20.8154L6.1084 15.8691L11.0547 16.7314L9.21387 18.5713L11.5859 20.9434L13.9424 18.5879L12.0859 16.7314L17.0322 15.8691L16.1699 20.8154ZM7.4082 12.0537L5.55176 10.1973L3.19531 12.5527L5.53516 14.8936L7.45605 12.9727L8.23047 13.7471L3.98633 17.9912L3.21191 17.2168L5.14844 15.2803L2.80859 12.9404L2.79785 12.9502L2.62109 12.7734H0V12.2266H2.73242L2.80078 12.1582L2.80762 12.166L5.16504 9.80957L3.32422 7.96973L8.27051 7.10742L7.4082 12.0537ZM19.8164 7.96973L17.9756 9.80957L20.3477 12.1816L20.3555 12.1738L20.4072 12.2256H23V12.7734H20.5547L20.3604 12.9678L20.3486 12.9561L18.0088 15.2969L19.9287 17.2168L19.1543 17.9912L14.9102 13.7471L15.6846 12.9727L17.6211 14.9092L19.9609 12.5684L17.5889 10.1963L15.7324 12.0537L14.8701 7.10742L19.8164 7.96973ZM11.7734 3.59277L11.9639 3.7832L11.957 3.79102L14.2979 6.13184L16.2178 4.21094L16.9922 4.98535L12.748 9.22949L11.9736 8.45508L13.9102 6.51855L11.5703 4.17871L9.23047 6.51855L11.167 8.45508L10.3926 9.22949L6.14844 4.98535L6.92285 4.21094L8.84277 6.13184L11.1826 3.79102L11.1748 3.7832L11.2256 3.73242V1H11.7734V3.59277Z" fill="black"/>
</g>
</g>
<defs>
<filter id="filter0_d_61_599" x="0" y="-1" width="25" height="25" filterUnits="userSpaceOnUse" color-interpolation-filters="sRGB">
<feFlood flood-opacity="0" result="BackgroundImageFix"/>
<feColorMatrix in="SourceAlpha" type="matrix" values="0 0 0 0 0 0 0 0 0 0 0 0 0 0 0 0 0 0 127 0" result="hardAlpha"/>
<feOffset dx="1" dy="-1"/>
<feGaussianBlur stdDeviation="0.5"/>
<feComposite in2="hardAlpha" operator="out"/>
<feColorMatrix type="matrix" values="0 0 0 0 0 0 0 0 0 0 0 0 0 0 0 0 0 0 0.5 0"/>
<feBlend mode="normal" in2="BackgroundImageFix" result="effect1_dropShadow_61_599"/>
<feBlend mode="normal" in="SourceGraphic" in2="effect1_dropShadow_61_599" result="shape"/>
</filter>
<clipPath id="clip0_61_599">
<rect width="24" height="24" fill="white"/>
</clipPath>
</defs>
</svg>
