<svg width="24" height="24" viewBox="0 0 24 24" fill="none" xmlns="http://www.w3.org/2000/svg">
<g clip-path="url(#clip0_65_78)">
<g filter="url(#filter0_d_65_78)">
<path d="M7.44446 21.7778V5.88889L9.8889 3.44444V2.22222H8.66668V1H14.7778V2.22222H13.5556V3.44444L16 5.88889V21.7778H7.44446Z" fill="#484848"/>
</g>
<path d="M8.66669 6.50001V20.5556H14.7778V6.50001L12.3334 4.05556V2.22223H11.1111V4.05556L8.66669 6.50001Z" fill="white"/>
<path d="M12.3333 4.05554V20.5555H13.5555V5.27776L12.3333 4.05554Z" fill="#C0C0C0"/>
<path d="M9.88934 20.5554H8.66669V6.49091L9.88934 5.26825V20.5554Z" fill="#C0C0C0"/>
<path d="M14.7782 6.42163V20.5554H13.5555V5.19897L14.7782 6.42163Z" fill="#808080"/>
<g filter="url(#filter1_d_65_78)">
<path d="M11.1111 21.7778L12.3333 23H18.4444L19.6666 21.7778V13.2222L18.4444 12H12.3333L11.1111 13.2222V21.7778Z" fill="#484848"/>
</g>
<path d="M12.3333 14.4445V21.7778H13.5555V14.4445H12.3333Z" fill="#808080"/>
<path d="M14.7778 15.6667V21.7778H16V15.6667H14.7778Z" fill="#808080"/>
<path d="M13.5555 15.6667V21.7778H14.7778V15.6667H13.5555Z" fill="white"/>
<g filter="url(#filter2_d_65_78)">
<path d="M5 18.1111V21.7778L6.22222 23H9.88889L11.1111 21.7778V18.1111L9.88889 16.8889H6.22222L5 18.1111Z" fill="#484848"/>
</g>
<path d="M6.22223 18.1111V20.5555H8.66667V18.1111H6.22223Z" fill="white"/>
<path d="M6.22223 21.7778V20.5555H8.66667V18.1111H9.8889V21.7778H6.22223Z" fill="#808080"/>
</g>
<defs>
<filter id="filter0_d_65_78" x="7.44446" y="-1" width="10.5555" height="22.7778" filterUnits="userSpaceOnUse" color-interpolation-filters="sRGB">
<feFlood flood-opacity="0" result="BackgroundImageFix"/>
<feColorMatrix in="SourceAlpha" type="matrix" values="0 0 0 0 0 0 0 0 0 0 0 0 0 0 0 0 0 0 127 0" result="hardAlpha"/>
<feOffset dx="1" dy="-1"/>
<feGaussianBlur stdDeviation="0.5"/>
<feComposite in2="hardAlpha" operator="out"/>
<feColorMatrix type="matrix" values="0 0 0 0 0 0 0 0 0 0 0 0 0 0 0 0 0 0 0.5 0"/>
<feBlend mode="normal" in2="BackgroundImageFix" result="effect1_dropShadow_65_78"/>
<feBlend mode="normal" in="SourceGraphic" in2="effect1_dropShadow_65_78" result="shape"/>
</filter>
<filter id="filter1_d_65_78" x="11.1111" y="10" width="10.5555" height="13" filterUnits="userSpaceOnUse" color-interpolation-filters="sRGB">
<feFlood flood-opacity="0" result="BackgroundImageFix"/>
<feColorMatrix in="SourceAlpha" type="matrix" values="0 0 0 0 0 0 0 0 0 0 0 0 0 0 0 0 0 0 127 0" result="hardAlpha"/>
<feOffset dx="1" dy="-1"/>
<feGaussianBlur stdDeviation="0.5"/>
<feComposite in2="hardAlpha" operator="out"/>
<feColorMatrix type="matrix" values="0 0 0 0 0 0 0 0 0 0 0 0 0 0 0 0 0 0 0.5 0"/>
<feBlend mode="normal" in2="BackgroundImageFix" result="effect1_dropShadow_65_78"/>
<feBlend mode="normal" in="SourceGraphic" in2="effect1_dropShadow_65_78" result="shape"/>
</filter>
<filter id="filter2_d_65_78" x="5" y="14.8889" width="8.11108" height="8.11108" filterUnits="userSpaceOnUse" color-interpolation-filters="sRGB">
<feFlood flood-opacity="0" result="BackgroundImageFix"/>
<feColorMatrix in="SourceAlpha" type="matrix" values="0 0 0 0 0 0 0 0 0 0 0 0 0 0 0 0 0 0 127 0" result="hardAlpha"/>
<feOffset dx="1" dy="-1"/>
<feGaussianBlur stdDeviation="0.5"/>
<feComposite in2="hardAlpha" operator="out"/>
<feColorMatrix type="matrix" values="0 0 0 0 0 0 0 0 0 0 0 0 0 0 0 0 0 0 0.5 0"/>
<feBlend mode="normal" in2="BackgroundImageFix" result="effect1_dropShadow_65_78"/>
<feBlend mode="normal" in="SourceGraphic" in2="effect1_dropShadow_65_78" result="shape"/>
</filter>
<clipPath id="clip0_65_78">
<rect width="24" height="24" fill="white"/>
</clipPath>
</defs>
</svg>
