<svg width="24" height="24" viewBox="0 0 24 24" fill="none" xmlns="http://www.w3.org/2000/svg">
<g clip-path="url(#clip0_64_197)">
<g filter="url(#filter0_d_64_197)">
<path d="M10.8609 2.65768C11.3671 1.78077 12.6329 1.78077 13.1391 2.65768L22.8218 19.4286C23.3281 20.3055 22.6952 21.4016 21.6827 21.4016H2.31733C1.30476 21.4016 0.671904 20.3055 1.17819 19.4286L10.8609 2.65768Z" fill="black"/>
</g>
<path d="M10.8608 5.28842C11.3671 4.41151 12.6328 4.41151 13.1391 5.28842L20.5435 18.1132C21.0498 18.9901 20.4169 20.0863 19.4044 20.0863H4.59558C3.58302 20.0863 2.95016 18.9901 3.45645 18.1132L10.8608 5.28842Z" fill="white"/>
<path d="M10.5564 11.3062C10.5829 11.258 10.6072 11.1856 10.6292 11.0892C10.6557 10.9927 10.6756 10.8809 10.6888 10.7538C10.7064 10.6266 10.7197 10.4907 10.7285 10.346C10.7417 10.1969 10.7484 10.0457 10.7484 9.89221C10.7484 9.7519 10.7417 9.61598 10.7285 9.48444C10.7197 9.34852 10.7064 9.22356 10.6888 9.10957C10.6711 8.99118 10.6491 8.88595 10.6226 8.79388C10.6006 8.7018 10.5763 8.62946 10.5498 8.57684C10.6292 8.60315 10.7329 8.62946 10.8609 8.65577C10.9932 8.67769 11.1388 8.69742 11.2977 8.71496C11.4609 8.73249 11.6308 8.74784 11.8073 8.76099C11.9882 8.76976 12.1646 8.77415 12.3367 8.77415C12.4956 8.77415 12.6676 8.77196 12.8529 8.76757C13.0427 8.7588 13.2236 8.74565 13.3956 8.72811C13.5721 8.71057 13.731 8.69084 13.8721 8.66892C14.0133 8.64261 14.1192 8.61192 14.1898 8.57684C14.1633 8.63384 14.1391 8.70838 14.117 8.80046C14.0994 8.89253 14.0817 8.99776 14.0641 9.11614C14.0508 9.23014 14.0398 9.3551 14.031 9.49102C14.0266 9.62256 14.0244 9.75629 14.0244 9.89221C14.0244 10.0325 14.0266 10.1706 14.031 10.3065C14.0398 10.4425 14.0508 10.574 14.0641 10.7012C14.0817 10.8239 14.0994 10.9379 14.117 11.0431C14.1391 11.1484 14.1633 11.2361 14.1898 11.3062C14.1192 11.2843 14.0155 11.2668 13.8788 11.2536C13.7464 11.2361 13.5942 11.2229 13.4221 11.2141C13.2544 11.201 13.078 11.1922 12.8926 11.1878C12.7073 11.1791 12.5287 11.1747 12.3566 11.1747C12.1845 11.1747 12.008 11.1791 11.8271 11.1878C11.6462 11.1922 11.4719 11.201 11.3043 11.2141C11.141 11.2229 10.9932 11.2361 10.8609 11.2536C10.7285 11.2668 10.627 11.2843 10.5564 11.3062ZM10.027 19.0998C10.0623 18.9858 10.0865 18.8498 10.0998 18.692C10.113 18.5341 10.1196 18.3785 10.1196 18.225C10.1196 18.0847 10.1108 17.9444 10.0932 17.8041C10.0755 17.6638 10.0535 17.5257 10.027 17.3898C10.2741 17.3898 10.4903 17.3788 10.6756 17.3569C10.8653 17.335 11.0219 17.2977 11.1455 17.2451C11.2734 17.1881 11.3683 17.1092 11.43 17.0083C11.4962 16.9075 11.5293 16.7781 11.5293 16.6203V14.7919C11.5249 14.6034 11.4896 14.4543 11.4234 14.3447C11.3616 14.2307 11.2778 14.1452 11.1719 14.0882C11.066 14.0268 10.9425 13.9874 10.8013 13.9698C10.6645 13.9479 10.5189 13.9369 10.3645 13.9369H10.1527C10.188 13.8493 10.2189 13.7287 10.2454 13.5752C10.2719 13.4174 10.2851 13.253 10.2851 13.082C10.2851 12.9154 10.2719 12.7553 10.2454 12.6019C10.2233 12.444 10.1924 12.3191 10.1527 12.227C10.5278 12.2445 10.8763 12.2577 11.1984 12.2664C11.5249 12.2752 11.8315 12.2796 12.1183 12.2796C12.6522 12.2796 13.1133 12.2599 13.5015 12.2204C13.8898 12.1766 14.2229 12.102 14.5009 11.9968C14.4126 12.1678 14.3354 12.3322 14.2692 12.49C14.203 12.6435 14.1457 12.8079 14.0972 12.9833C14.053 13.1543 14.0177 13.3428 13.9913 13.5489C13.9692 13.755 13.9582 13.9918 13.9582 14.2592L13.9516 16.6203C13.9516 16.7781 13.9846 16.9075 14.0508 17.0083C14.1214 17.1092 14.2163 17.1881 14.3354 17.2451C14.4545 17.2977 14.5957 17.335 14.759 17.3569C14.9222 17.3788 15.0987 17.3898 15.2884 17.3898C15.262 17.4819 15.2399 17.5959 15.2222 17.7318C15.209 17.8677 15.2024 18.0124 15.2024 18.1658C15.2024 18.3325 15.2068 18.5013 15.2156 18.6723C15.2289 18.8389 15.2531 18.9814 15.2884 19.0998C15.1693 19.0778 15.0061 19.0581 14.7987 19.0406C14.5913 19.0186 14.3641 19.0011 14.117 18.9879C13.8743 18.9704 13.6184 18.9573 13.3493 18.9485C13.0846 18.9397 12.8331 18.9353 12.5948 18.9353C12.383 18.9353 12.1514 18.9397 11.8999 18.9485C11.6528 18.9529 11.408 18.9638 11.1653 18.9814C10.9271 18.9945 10.7064 19.0121 10.5035 19.034C10.3005 19.0515 10.1417 19.0734 10.027 19.0998Z" fill="black"/>
</g>
<defs>
<filter id="filter0_d_64_197" x="1" y="0" width="24" height="21.4016" filterUnits="userSpaceOnUse" color-interpolation-filters="sRGB">
<feFlood flood-opacity="0" result="BackgroundImageFix"/>
<feColorMatrix in="SourceAlpha" type="matrix" values="0 0 0 0 0 0 0 0 0 0 0 0 0 0 0 0 0 0 127 0" result="hardAlpha"/>
<feOffset dx="1" dy="-1"/>
<feGaussianBlur stdDeviation="0.5"/>
<feComposite in2="hardAlpha" operator="out"/>
<feColorMatrix type="matrix" values="0 0 0 0 0 0 0 0 0 0 0 0 0 0 0 0 0 0 0.5 0"/>
<feBlend mode="normal" in2="BackgroundImageFix" result="effect1_dropShadow_64_197"/>
<feBlend mode="normal" in="SourceGraphic" in2="effect1_dropShadow_64_197" result="shape"/>
</filter>
<clipPath id="clip0_64_197">
<rect width="24" height="24" fill="white"/>
</clipPath>
</defs>
</svg>
