<svg width="24" height="24" viewBox="0 0 24 24" fill="none" xmlns="http://www.w3.org/2000/svg">
<g clip-path="url(#clip0_64_137)">
<g filter="url(#filter0_d_64_137)">
<path d="M0 4.53296V21.3996H23V4.53296H0Z" fill="#484848"/>
</g>
<path d="M0 4.53296V21.3996H23V4.53296H0Z" fill="black"/>
<path d="M1.53333 6.06628V19.8663H10.7333V6.06628H1.53333Z" fill="white"/>
<path d="M12.2667 6.06628V19.8663H21.4667V6.06628H12.2667Z" fill="#C0C0C0"/>
<g filter="url(#filter1_d_64_137)">
<path d="M3.7991 3.06662C4.16291 3.05242 4.66765 3.04434 5.22879 3.07151C6.34621 3.12566 7.71077 3.31793 8.63797 3.88205C9.19365 4.2203 9.77669 4.80552 10.2171 5.29905C10.4379 5.54657 10.6254 5.77366 10.7571 5.93869C10.8163 6.01293 10.8646 6.07563 10.8997 6.12131H12.4427C12.4722 6.08319 12.5075 6.03749 12.5481 5.98655C12.6798 5.82149 12.8672 5.59455 13.0882 5.3469C13.5286 4.85332 14.1115 4.26821 14.6673 3.9299C15.5945 3.36565 16.9589 3.17352 18.0764 3.11936C18.6377 3.09217 19.1423 3.10027 19.5061 3.11447C19.688 3.12158 19.8352 3.12989 19.9368 3.13694C19.9875 3.14045 20.0271 3.14352 20.054 3.14572C20.0671 3.1468 20.0773 3.14804 20.0843 3.14865C20.0877 3.14896 20.0912 3.14946 20.093 3.14963H20.095L20.0862 3.24924L20.096 3.14963L20.1858 3.15842V18.7053L20.0657 18.6799H20.0647C20.0637 18.6797 20.0618 18.6793 20.0598 18.6789C20.0554 18.678 20.0481 18.6767 20.0393 18.675C20.0216 18.6715 19.9951 18.6667 19.9612 18.6604C19.893 18.6477 19.7936 18.63 19.6702 18.6106C19.4228 18.5715 19.0776 18.5246 18.6897 18.4934C17.9098 18.4307 16.9698 18.433 16.2864 18.677C15.7934 18.8531 15.228 19.2278 14.7815 19.5647C14.5596 19.7321 14.3688 19.8887 14.2337 20.0031C14.1664 20.0602 14.1131 20.1076 14.0764 20.1399C14.0583 20.1558 14.0439 20.1685 14.0345 20.177C14.0299 20.1811 14.0261 20.1846 14.0237 20.1867C14.0227 20.1876 14.0214 20.1883 14.0208 20.1887V20.1897H14.0198L13.9915 20.216H12.3196V20.1213H10.9856V20.1682H9.31375L9.28543 20.1418H9.28445V20.1408C9.28377 20.1404 9.28237 20.1397 9.28152 20.1389C9.27914 20.1367 9.27517 20.1331 9.27078 20.1291C9.26133 20.1207 9.24674 20.1079 9.22879 20.092C9.19218 20.0597 9.13872 20.0122 9.07156 19.9553C8.93648 19.8409 8.7455 19.6842 8.52371 19.5168C8.07726 19.18 7.51174 18.8052 7.01883 18.6291C6.33548 18.3852 5.39534 18.3828 4.61551 18.4455C4.22776 18.4767 3.88235 18.5237 3.63504 18.5627C3.51173 18.5822 3.41215 18.5999 3.34402 18.6125C3.31018 18.6188 3.28356 18.6237 3.2659 18.6272C3.25724 18.6289 3.2498 18.6302 3.24539 18.6311C3.24356 18.6314 3.2415 18.6319 3.24051 18.6321H3.23953L3.11942 18.6574V3.11057L3.20926 3.10178L3.21902 3.20139L3.21024 3.10178H3.21219C3.21395 3.10162 3.21763 3.10111 3.22098 3.1008C3.22788 3.10019 3.23828 3.09895 3.25125 3.09787C3.27808 3.09567 3.31783 3.09259 3.36844 3.08908C3.47004 3.08205 3.61738 3.07372 3.7991 3.06662Z" fill="black"/>
</g>
<path d="M3.06668 3.04767V18.381C3.06668 18.381 5.49022 17.8775 6.90001 18.381C7.91663 18.7441 9.20001 19.9143 9.20001 19.9143H10.7333V6.11434C10.7333 6.11434 9.5184 4.4748 8.43335 3.81434C6.62493 2.71356 3.06668 3.04767 3.06668 3.04767Z" fill="black" stroke="black" stroke-width="0.2"/>
<path d="M4.60001 4.62013V17.1302C4.60001 17.1302 6.53884 16.7194 7.66667 17.1302C8.47997 17.4265 9.50667 18.3812 9.50667 18.3812H10.7333V7.12215C10.7333 7.12215 9.76138 5.7845 8.89334 5.24564C7.44661 4.34754 4.60001 4.62013 4.60001 4.62013Z" fill="white" stroke="black" stroke-width="0.2"/>
<path d="M4.60001 3H3.06668V16.8H4.60001V3Z" fill="#808080"/>
<path d="M6.13333 7.90689V6.83356C6.13333 6.83356 7.61129 7.13048 8.43333 7.60022C9.53622 8.23045 10.7333 9.90022 10.7333 9.90022V10.6669C10.7333 10.6669 9.61273 9.14532 8.43333 8.67356C7.66666 8.36689 6.13333 7.90689 6.13333 7.90689Z" fill="#808080"/>
<path d="M19.9333 3.09559V18.4289C19.9333 18.4289 17.5098 17.9254 16.1 18.4289C15.0834 18.792 13.8 19.9623 13.8 19.9623H12.2667V6.16225C12.2667 6.16225 13.4816 4.52272 14.5667 3.86225C16.3751 2.76148 19.9333 3.09559 19.9333 3.09559Z" fill="black" stroke="black" stroke-width="0.2"/>
<path d="M18.4 4.66786V17.178C18.4 17.178 16.4611 16.7672 15.3333 17.178C14.52 17.4742 13.4933 18.429 13.4933 18.429H12.2666V7.16988C12.2666 7.16988 13.2386 5.83222 14.1066 5.29337C15.5534 4.39527 18.4 4.66786 18.4 4.66786Z" fill="white" stroke="black" stroke-width="0.2"/>
<path d="M6.13333 11.7402V10.6669C6.13333 10.6669 7.61129 10.9638 8.43333 11.4335C9.53622 12.0638 10.7333 13.7335 10.7333 13.7335V14.5002C10.7333 14.5002 9.61273 12.9786 8.43333 12.5069C7.66666 12.2002 6.13333 11.7402 6.13333 11.7402Z" fill="#808080"/>
<path d="M6.13333 14.8069V13.7335C6.13333 13.7335 7.61129 14.0304 8.43333 14.5002C9.53622 15.1304 10.7333 16.8002 10.7333 16.8002V17.5669C10.7333 17.5669 9.61273 16.0453 8.43333 15.5735C7.66666 15.2669 6.13333 14.8069 6.13333 14.8069Z" fill="#808080"/>
<path d="M16.8667 8.67355V7.60022C16.8667 7.60022 15.3887 7.89715 14.5667 8.36689C13.4638 8.99711 12.2667 10.6669 12.2667 10.6669V11.4336C12.2667 11.4336 13.3873 9.91198 14.5667 9.44022C15.3333 9.13355 16.8667 8.67355 16.8667 8.67355Z" fill="#808080"/>
<path d="M16.8667 13.2735V12.2002C16.8667 12.2002 15.3887 12.4971 14.5667 12.9669C13.4638 13.5971 12.2667 15.2669 12.2667 15.2669V16.0335C12.2667 16.0335 13.3873 14.512 14.5667 14.0402C15.3333 13.7335 16.8667 13.2735 16.8667 13.2735Z" fill="#808080"/>
</g>
<defs>
<filter id="filter0_d_64_137" x="0" y="2.53296" width="25" height="18.8666" filterUnits="userSpaceOnUse" color-interpolation-filters="sRGB">
<feFlood flood-opacity="0" result="BackgroundImageFix"/>
<feColorMatrix in="SourceAlpha" type="matrix" values="0 0 0 0 0 0 0 0 0 0 0 0 0 0 0 0 0 0 127 0" result="hardAlpha"/>
<feOffset dx="1" dy="-1"/>
<feGaussianBlur stdDeviation="0.5"/>
<feComposite in2="hardAlpha" operator="out"/>
<feColorMatrix type="matrix" values="0 0 0 0 0 0 0 0 0 0 0 0 0 0 0 0 0 0 0.5 0"/>
<feBlend mode="normal" in2="BackgroundImageFix" result="effect1_dropShadow_64_137"/>
<feBlend mode="normal" in="SourceGraphic" in2="effect1_dropShadow_64_137" result="shape"/>
</filter>
<filter id="filter1_d_64_137" x="3.11942" y="1.05353" width="19.0664" height="19.1625" filterUnits="userSpaceOnUse" color-interpolation-filters="sRGB">
<feFlood flood-opacity="0" result="BackgroundImageFix"/>
<feColorMatrix in="SourceAlpha" type="matrix" values="0 0 0 0 0 0 0 0 0 0 0 0 0 0 0 0 0 0 127 0" result="hardAlpha"/>
<feOffset dx="1" dy="-1"/>
<feGaussianBlur stdDeviation="0.5"/>
<feComposite in2="hardAlpha" operator="out"/>
<feColorMatrix type="matrix" values="0 0 0 0 0 0 0 0 0 0 0 0 0 0 0 0 0 0 0.5 0"/>
<feBlend mode="normal" in2="BackgroundImageFix" result="effect1_dropShadow_64_137"/>
<feBlend mode="normal" in="SourceGraphic" in2="effect1_dropShadow_64_137" result="shape"/>
</filter>
<clipPath id="clip0_64_137">
<rect width="24" height="24" fill="white"/>
</clipPath>
</defs>
</svg>
