<svg width="24" height="24" viewBox="0 0 24 24" fill="none" xmlns="http://www.w3.org/2000/svg">
<g clip-path="url(#clip0_64_139)">
<g filter="url(#filter0_d_64_139)">
<path d="M0 4.53278V21.3994H23V4.53278H0Z" fill="#484848"/>
</g>
<path d="M0 4.53278V21.3994H23V4.53278H0Z" fill="#484848"/>
<path d="M1.53333 6.0661V19.8661H10.7333V6.0661H1.53333Z" fill="#EFEFEF"/>
<path d="M12.2667 6.0661V19.8661H21.4667V6.0661H12.2667Z" fill="#C0C0C0"/>
<g filter="url(#filter1_d_64_139)">
<path d="M3.7991 3.06677C4.1629 3.05257 4.66765 3.04449 5.22879 3.07166C6.34627 3.12582 7.71077 3.31801 8.63797 3.8822C9.19372 4.22049 9.77667 4.80563 10.2171 5.29919C10.438 5.54682 10.6254 5.77379 10.7571 5.93884C10.8164 6.0132 10.8646 6.07577 10.8997 6.12146H12.4427C12.4722 6.0833 12.5074 6.03774 12.5481 5.98669C12.6798 5.82162 12.8671 5.59481 13.0882 5.34705C13.5286 4.85343 14.1114 4.2684 14.6673 3.93005C15.5945 3.36572 16.9588 3.17367 18.0764 3.11951C18.6377 3.09232 19.1423 3.10042 19.5061 3.11462C19.688 3.12173 19.8352 3.13004 19.9368 3.13708C19.9875 3.1406 20.0271 3.14367 20.054 3.14587C20.0671 3.14695 20.0773 3.14819 20.0843 3.1488C20.0877 3.14911 20.0913 3.14962 20.093 3.14978H20.095L20.0862 3.24939L20.096 3.14978L20.1858 3.15857V18.7054L20.0657 18.6801H20.0647C20.0637 18.6798 20.0618 18.6795 20.0598 18.6791C20.0554 18.6782 20.0481 18.6769 20.0393 18.6752C20.0216 18.6717 19.9952 18.6668 19.9612 18.6605C19.893 18.6479 19.7936 18.6302 19.6702 18.6107C19.4228 18.5717 19.0776 18.5247 18.6897 18.4935C17.9097 18.4308 16.9698 18.4331 16.2864 18.6771C15.7933 18.8533 15.228 19.2279 14.7815 19.5648C14.5595 19.7323 14.3688 19.8888 14.2337 20.0033C14.1662 20.0604 14.1131 20.1077 14.0764 20.14C14.0582 20.1561 14.0439 20.1686 14.0345 20.1771C14.0298 20.1813 14.0261 20.1847 14.0237 20.1869C14.0226 20.1879 14.0214 20.1884 14.0208 20.1888V20.1898H14.0198L13.9915 20.2162H12.3196V20.1215H10.9856V20.1683H9.31375L9.28543 20.142H9.28445V20.141C9.2838 20.1406 9.28243 20.1399 9.28152 20.139C9.27915 20.1369 9.27527 20.1333 9.27078 20.1293C9.26134 20.1208 9.24685 20.1081 9.22879 20.0922C9.19217 20.0599 9.13882 20.0124 9.07156 19.9554C8.93647 19.841 8.74559 19.6844 8.52371 19.517C8.07724 19.1801 7.5118 18.8054 7.01883 18.6293C6.33546 18.3854 5.39537 18.383 4.61551 18.4457C4.22775 18.4769 3.88235 18.5238 3.63504 18.5629C3.5117 18.5823 3.41215 18.6001 3.34402 18.6127C3.31015 18.6189 3.28355 18.6238 3.2659 18.6273C3.25721 18.629 3.24979 18.6303 3.24539 18.6312C3.24352 18.6316 3.24146 18.632 3.24051 18.6322H3.23953L3.11942 18.6576V3.11072L3.20926 3.10193L3.21902 3.20154L3.21024 3.10193H3.21219C3.21393 3.10177 3.21762 3.10126 3.22098 3.10095C3.22788 3.10034 3.23828 3.0991 3.25125 3.09802C3.27807 3.09582 3.31783 3.09274 3.36844 3.08923C3.47003 3.08219 3.61738 3.07387 3.7991 3.06677Z" fill="black"/>
</g>
<path d="M3.06668 3.04767V18.381C3.06668 18.381 5.49022 17.8775 6.90001 18.381C7.91663 18.7441 9.20001 19.9143 9.20001 19.9143H10.7333V6.11434C10.7333 6.11434 9.5184 4.4748 8.43335 3.81434C6.62493 2.71356 3.06668 3.04767 3.06668 3.04767Z" fill="#484848"/>
<path d="M4.60004 4.61995V17.13C4.60004 17.13 6.53887 16.7193 7.6667 17.13C8.48 17.4263 9.5067 18.3811 9.5067 18.3811H10.7334V7.12197C10.7334 7.12197 9.76141 5.78431 8.89337 5.24545C7.44664 4.34736 4.60004 4.61995 4.60004 4.61995Z" fill="#EFEFEF"/>
<path d="M4.60001 3H3.06668V16.8H4.60001V3Z" fill="#7F7F7F"/>
<path d="M6.13336 7.90665V6.83331C6.13336 6.83331 7.61132 7.13024 8.43336 7.59998C9.53625 8.2302 10.7334 9.89998 10.7334 9.89998V10.6666C10.7334 10.6666 9.61276 9.14507 8.43336 8.67331C7.6667 8.36665 6.13336 7.90665 6.13336 7.90665Z" fill="#808080"/>
<path d="M19.9333 3.0954V18.4287C19.9333 18.4287 17.5098 17.9252 16.1 18.4287C15.0834 18.7918 13.8 19.9621 13.8 19.9621H12.2667V6.16207C12.2667 6.16207 13.4816 4.52253 14.5667 3.86207C16.3751 2.76129 19.9333 3.0954 19.9333 3.0954Z" fill="#484848"/>
<path d="M18.4 4.66768V17.1778C18.4 17.1778 16.4612 16.767 15.3333 17.1778C14.52 17.474 13.4933 18.4288 13.4933 18.4288H12.2667V7.1697C12.2667 7.1697 13.2386 5.83204 14.1067 5.29318C15.5534 4.39509 18.4 4.66768 18.4 4.66768Z" fill="#EFEFEF"/>
<path d="M6.13336 11.74V10.6667C6.13336 10.6667 7.61132 10.9636 8.43336 11.4334C9.53625 12.0636 10.7334 13.7334 10.7334 13.7334V14.5C10.7334 14.5 9.61276 12.9784 8.43336 12.5067C7.6667 12.2 6.13336 11.74 6.13336 11.74Z" fill="#808080"/>
<path d="M6.13336 14.8067V13.7333C6.13336 13.7333 7.61132 14.0303 8.43336 14.5C9.53625 15.1302 10.7334 16.8 10.7334 16.8V17.5667C10.7334 17.5667 9.61276 16.0451 8.43336 15.5733C7.6667 15.2667 6.13336 14.8067 6.13336 14.8067Z" fill="#808080"/>
<path d="M16.8667 8.67331V7.59998C16.8667 7.59998 15.3887 7.8969 14.5667 8.36664C13.4638 8.99687 12.2667 10.6666 12.2667 10.6666V11.4333C12.2667 11.4333 13.3873 9.91174 14.5667 9.43998C15.3334 9.13331 16.8667 8.67331 16.8667 8.67331Z" fill="#808080"/>
<path d="M16.8667 13.2733V12.2C16.8667 12.2 15.3887 12.4969 14.5667 12.9667C13.4638 13.5969 12.2667 15.2667 12.2667 15.2667V16.0333C12.2667 16.0333 13.3873 14.5118 14.5667 14.04C15.3334 13.7333 16.8667 13.2733 16.8667 13.2733Z" fill="#808080"/>
</g>
<defs>
<filter id="filter0_d_64_139" x="0" y="2.53278" width="25" height="18.8666" filterUnits="userSpaceOnUse" color-interpolation-filters="sRGB">
<feFlood flood-opacity="0" result="BackgroundImageFix"/>
<feColorMatrix in="SourceAlpha" type="matrix" values="0 0 0 0 0 0 0 0 0 0 0 0 0 0 0 0 0 0 127 0" result="hardAlpha"/>
<feOffset dx="1" dy="-1"/>
<feGaussianBlur stdDeviation="0.5"/>
<feComposite in2="hardAlpha" operator="out"/>
<feColorMatrix type="matrix" values="0 0 0 0 0 0 0 0 0 0 0 0 0 0 0 0 0 0 0.5 0"/>
<feBlend mode="normal" in2="BackgroundImageFix" result="effect1_dropShadow_64_139"/>
<feBlend mode="normal" in="SourceGraphic" in2="effect1_dropShadow_64_139" result="shape"/>
</filter>
<filter id="filter1_d_64_139" x="3.11942" y="1.05365" width="19.0664" height="19.1625" filterUnits="userSpaceOnUse" color-interpolation-filters="sRGB">
<feFlood flood-opacity="0" result="BackgroundImageFix"/>
<feColorMatrix in="SourceAlpha" type="matrix" values="0 0 0 0 0 0 0 0 0 0 0 0 0 0 0 0 0 0 127 0" result="hardAlpha"/>
<feOffset dx="1" dy="-1"/>
<feGaussianBlur stdDeviation="0.5"/>
<feComposite in2="hardAlpha" operator="out"/>
<feColorMatrix type="matrix" values="0 0 0 0 0 0 0 0 0 0 0 0 0 0 0 0 0 0 0.5 0"/>
<feBlend mode="normal" in2="BackgroundImageFix" result="effect1_dropShadow_64_139"/>
<feBlend mode="normal" in="SourceGraphic" in2="effect1_dropShadow_64_139" result="shape"/>
</filter>
<clipPath id="clip0_64_139">
<rect width="24" height="24" fill="white"/>
</clipPath>
</defs>
</svg>
