<svg width="24" height="24" viewBox="0 0 24 24" fill="none" xmlns="http://www.w3.org/2000/svg">
<g clip-path="url(#clip0_61_460)">
<g filter="url(#filter0_d_61_460)">
<path d="M16.6729 3.22559L17.1299 4.48145L17.2588 7.27734L16.8662 7.41992L15.5605 5.05176L15.5225 4.94727L12.0098 6.22559V8.50781H14.2383V8.58008L14.9912 11.3936L15.0879 11.5615L15.1533 11.8057L15.1094 11.832L16.167 15.7803L16.2285 15.8154L16.4316 16.5762L16.3711 16.541L17.7832 21.8105L17.8438 21.8457L18 22.4258H17.3711L17.3047 22.1768L14.9619 20.8242L12.2178 22.4082L12.248 22.4258H11.0732L11.1035 22.4082L8.35938 20.8242L5.66699 22.3799L5.6543 22.4258H5L5.0957 22.0664L5.18848 22.0137L6.60059 16.7441L6.50781 16.7969L6.71191 16.0352L6.80371 15.9834L8.6709 9.02148V8.72656L8.72949 8.50781H10.8965V6.63086L6.10547 8.375L5.72461 7.3291L15.1416 3.90137L15.1035 3.79688L14.5811 1.14258L14.9746 1L16.6729 3.22559ZM8.91602 20.5029L11.6611 22.0869L14.4053 20.502L11.6611 18.918L8.91602 20.5029ZM5.87109 21.6191L11.1045 18.5967L7.27344 16.3848L5.87109 21.6191ZM12.2178 18.5967L17.1016 21.417L15.793 16.5332L12.2178 18.5967ZM7.80469 16.0488L11.6611 18.2754L15.5176 16.0488L11.6611 13.8223L7.80469 16.0488ZM7.48535 15.5908L11.1045 13.5L8.45508 11.9707L7.48535 15.5908ZM12.2178 13.5L15.4854 15.3867L14.6104 12.1201L12.2178 13.5ZM8.60449 11.4141L11.6611 13.1787L14.4609 11.5625L13.792 9.06445H9.23535L8.60449 11.4141Z" fill="#484848"/>
</g>
</g>
<defs>
<filter id="filter0_d_61_460" x="5" y="-1" width="15" height="23.4258" filterUnits="userSpaceOnUse" color-interpolation-filters="sRGB">
<feFlood flood-opacity="0" result="BackgroundImageFix"/>
<feColorMatrix in="SourceAlpha" type="matrix" values="0 0 0 0 0 0 0 0 0 0 0 0 0 0 0 0 0 0 127 0" result="hardAlpha"/>
<feOffset dx="1" dy="-1"/>
<feGaussianBlur stdDeviation="0.5"/>
<feComposite in2="hardAlpha" operator="out"/>
<feColorMatrix type="matrix" values="0 0 0 0 0 0 0 0 0 0 0 0 0 0 0 0 0 0 0.5 0"/>
<feBlend mode="normal" in2="BackgroundImageFix" result="effect1_dropShadow_61_460"/>
<feBlend mode="normal" in="SourceGraphic" in2="effect1_dropShadow_61_460" result="shape"/>
</filter>
<clipPath id="clip0_61_460">
<rect width="24" height="24" fill="white"/>
</clipPath>
</defs>
</svg>
