<svg width="24" height="24" viewBox="0 0 24 24" fill="none" xmlns="http://www.w3.org/2000/svg">
<g clip-path="url(#clip0_71_304)">
<g filter="url(#filter0_d_71_304)">
<path d="M12.3496 1C13.2609 1 14 1.73912 14 2.65039C13.9998 3.36816 13.5405 3.97629 12.9004 4.20312V5.40039H15.0996V6.5H12.9004V16.4004C12.9192 16.4266 13.7675 17.6026 14.5498 18.0498C15.2047 18.4241 16.2617 18.2805 16.8564 18.1562L15.0996 16.4004C15.0996 16.4004 17.155 16.2445 18.4004 15.8496C19.7738 15.414 21.7002 14.2002 21.7002 14.2002C21.693 14.2105 20.3147 16.1875 19.5 17.5C18.5919 18.9631 17.314 21.3234 17.2998 21.3496V19.1504L15.0996 20.25C14.6701 20.4649 13.8294 21.0547 13.4502 21.3496C12.8389 21.8251 12.9004 23 12.9004 23H11.7998C11.7998 23 11.8613 21.8251 11.25 21.3496C10.8708 21.0547 10.0291 20.4648 9.59961 20.25L7.40039 19.1504V21.3496C7.38912 21.3288 6.10939 18.9648 5.2002 17.5C4.38723 16.1902 3.01293 14.2187 3 14.2002C3.01499 14.2096 4.93175 15.4158 6.2998 15.8496C7.53569 16.2415 9.56861 16.398 9.59961 16.4004L7.84277 18.1562C8.43735 18.2805 9.49517 18.4242 10.1504 18.0498C10.9337 17.602 11.7831 16.4237 11.7998 16.4004V6.5H9.59961V5.40039H11.7998V4.20312C11.1596 3.97634 10.7004 3.36823 10.7002 2.65039C10.7002 1.73925 11.4385 1.00021 12.3496 1Z" fill="black"/>
</g>
<path d="M12.9 2.64998C12.9 2.95373 12.6537 3.19998 12.35 3.19998C12.0462 3.19998 11.8 2.95373 11.8 2.64998C11.8 2.34622 12.0462 2.09998 12.35 2.09998C12.6537 2.09998 12.9 2.34622 12.9 2.64998Z" fill="#EFEFEF"/>
<g filter="url(#filter1_d_71_304)">
<path d="M15.1 15.85C15.1 16.1537 14.8538 16.4 14.55 16.4C14.2462 16.4 14 16.1537 14 15.85C14 15.5462 14.2462 15.3 14.55 15.3C14.8538 15.3 15.1 15.5462 15.1 15.85Z" fill="#D9D9D9"/>
<path d="M15.1 15.85C15.1 16.1537 14.8538 16.4 14.55 16.4C14.2462 16.4 14 16.1537 14 15.85C14 15.5462 14.2462 15.3 14.55 15.3C14.8538 15.3 15.1 15.5462 15.1 15.85Z" stroke="black" stroke-width="0.4"/>
</g>
<g filter="url(#filter2_d_71_304)">
<path d="M10.7 11.45C10.7 11.7538 10.4537 12 10.15 12C9.84622 12 9.59998 11.7538 9.59998 11.45C9.59998 11.1463 9.84622 10.9 10.15 10.9C10.4537 10.9 10.7 11.1463 10.7 11.45Z" fill="#D9D9D9"/>
<path d="M10.7 11.45C10.7 11.7538 10.4537 12 10.15 12C9.84622 12 9.59998 11.7538 9.59998 11.45C9.59998 11.1463 9.84622 10.9 10.15 10.9C10.4537 10.9 10.7 11.1463 10.7 11.45Z" stroke="black" stroke-width="0.4"/>
</g>
<g filter="url(#filter3_d_71_304)">
<path d="M15.1 12.55C15.1 12.8538 14.8538 13.1 14.55 13.1C14.2462 13.1 14 12.8538 14 12.55C14 12.2462 14.2462 12 14.55 12C14.8538 12 15.1 12.2462 15.1 12.55Z" fill="#D9D9D9"/>
<path d="M15.1 12.55C15.1 12.8538 14.8538 13.1 14.55 13.1C14.2462 13.1 14 12.8538 14 12.55C14 12.2462 14.2462 12 14.55 12C14.8538 12 15.1 12.2462 15.1 12.55Z" stroke="black" stroke-width="0.4"/>
</g>
<g filter="url(#filter4_d_71_304)">
<path d="M11.8 11.45C11.8 11.7538 11.5538 12 11.25 12C10.9463 12 10.7 11.7538 10.7 11.45C10.7 11.1463 10.9463 10.9 11.25 10.9C11.5538 10.9 11.8 11.1463 11.8 11.45Z" fill="#D9D9D9"/>
<path d="M11.8 11.45C11.8 11.7538 11.5538 12 11.25 12C10.9463 12 10.7 11.7538 10.7 11.45C10.7 11.1463 10.9463 10.9 11.25 10.9C11.5538 10.9 11.8 11.1463 11.8 11.45Z" stroke="#808080" stroke-width="0.4"/>
</g>
<g filter="url(#filter5_d_71_304)">
<path d="M11.8 8.14998C11.8 8.45373 11.5538 8.69998 11.25 8.69998C10.9463 8.69998 10.7 8.45373 10.7 8.14998C10.7 7.84622 10.9463 7.59998 11.25 7.59998C11.5538 7.59998 11.8 7.84622 11.8 8.14998Z" fill="#D9D9D9"/>
<path d="M11.8 8.14998C11.8 8.45373 11.5538 8.69998 11.25 8.69998C10.9463 8.69998 10.7 8.45373 10.7 8.14998C10.7 7.84622 10.9463 7.59998 11.25 7.59998C11.5538 7.59998 11.8 7.84622 11.8 8.14998Z" stroke="#808080" stroke-width="0.4"/>
</g>
<g filter="url(#filter6_d_71_304)">
<path d="M10.7 8.14998C10.7 8.45373 10.4537 8.69998 10.15 8.69998C9.84622 8.69998 9.59998 8.45373 9.59998 8.14998C9.59998 7.84622 9.84622 7.59998 10.15 7.59998C10.4537 7.59998 10.7 7.84622 10.7 8.14998Z" fill="#D9D9D9"/>
<path d="M10.7 8.14998C10.7 8.45373 10.4537 8.69998 10.15 8.69998C9.84622 8.69998 9.59998 8.45373 9.59998 8.14998C9.59998 7.84622 9.84622 7.59998 10.15 7.59998C10.4537 7.59998 10.7 7.84622 10.7 8.14998Z" stroke="black" stroke-width="0.4"/>
</g>
<g filter="url(#filter7_d_71_304)">
<path d="M9.6 9.25001C9.6 9.55377 9.35376 9.80001 9.05 9.80001C8.74624 9.80001 8.5 9.55377 8.5 9.25001C8.5 8.94626 8.74624 8.70001 9.05 8.70001C9.35376 8.70001 9.6 8.94626 9.6 9.25001Z" fill="#D9D9D9"/>
<path d="M9.6 9.25001C9.6 9.55377 9.35376 9.80001 9.05 9.80001C8.74624 9.80001 8.5 9.55377 8.5 9.25001C8.5 8.94626 8.74624 8.70001 9.05 8.70001C9.35376 8.70001 9.6 8.94626 9.6 9.25001Z" stroke="black" stroke-width="0.4"/>
</g>
<g filter="url(#filter8_d_71_304)">
<path d="M16.2 14.75C16.2 15.0538 15.9537 15.3 15.65 15.3C15.3462 15.3 15.1 15.0538 15.1 14.75C15.1 14.4463 15.3462 14.2 15.65 14.2C15.9537 14.2 16.2 14.4463 16.2 14.75Z" fill="#D9D9D9"/>
<path d="M16.2 14.75C16.2 15.0538 15.9537 15.3 15.65 15.3C15.3462 15.3 15.1 15.0538 15.1 14.75C15.1 14.4463 15.3462 14.2 15.65 14.2C15.9537 14.2 16.2 14.4463 16.2 14.75Z" stroke="black" stroke-width="0.4"/>
</g>
<g filter="url(#filter9_d_71_304)">
<path d="M16.2 13.65C16.2 13.9537 15.9537 14.2 15.65 14.2C15.3462 14.2 15.1 13.9537 15.1 13.65C15.1 13.3462 15.3462 13.1 15.65 13.1C15.9537 13.1 16.2 13.3462 16.2 13.65Z" fill="#D9D9D9"/>
<path d="M16.2 13.65C16.2 13.9537 15.9537 14.2 15.65 14.2C15.3462 14.2 15.1 13.9537 15.1 13.65C15.1 13.3462 15.3462 13.1 15.65 13.1C15.9537 13.1 16.2 13.3462 16.2 13.65Z" stroke="black" stroke-width="0.4"/>
</g>
<g filter="url(#filter10_d_71_304)">
<path d="M14 12.55C14 12.8538 13.7538 13.1 13.45 13.1C13.1463 13.1 12.9 12.8538 12.9 12.55C12.9 12.2462 13.1463 12 13.45 12C13.7538 12 14 12.2462 14 12.55Z" fill="#D9D9D9"/>
<path d="M14 12.55C14 12.8538 13.7538 13.1 13.45 13.1C13.1463 13.1 12.9 12.8538 12.9 12.55C12.9 12.2462 13.1463 12 13.45 12C13.7538 12 14 12.2462 14 12.55Z" stroke="#808080" stroke-width="0.4"/>
</g>
<g filter="url(#filter11_d_71_304)">
<path d="M9.6 10.35C9.6 10.6537 9.35376 10.9 9.05 10.9C8.74624 10.9 8.5 10.6537 8.5 10.35C8.5 10.0462 8.74624 9.79999 9.05 9.79999C9.35376 9.79999 9.6 10.0462 9.6 10.35Z" fill="#D9D9D9"/>
<path d="M9.6 10.35C9.6 10.6537 9.35376 10.9 9.05 10.9C8.74624 10.9 8.5 10.6537 8.5 10.35C8.5 10.0462 8.74624 9.79999 9.05 9.79999C9.35376 9.79999 9.6 10.0462 9.6 10.35Z" stroke="black" stroke-width="0.4"/>
</g>
</g>
<defs>
<filter id="filter0_d_71_304" x="3" y="-1" width="20.7002" height="24" filterUnits="userSpaceOnUse" color-interpolation-filters="sRGB">
<feFlood flood-opacity="0" result="BackgroundImageFix"/>
<feColorMatrix in="SourceAlpha" type="matrix" values="0 0 0 0 0 0 0 0 0 0 0 0 0 0 0 0 0 0 127 0" result="hardAlpha"/>
<feOffset dx="1" dy="-1"/>
<feGaussianBlur stdDeviation="0.5"/>
<feComposite in2="hardAlpha" operator="out"/>
<feColorMatrix type="matrix" values="0 0 0 0 0 0 0 0 0 0 0 0 0 0 0 0 0 0 0.5 0"/>
<feBlend mode="normal" in2="BackgroundImageFix" result="effect1_dropShadow_71_304"/>
<feBlend mode="normal" in="SourceGraphic" in2="effect1_dropShadow_71_304" result="shape"/>
</filter>
<filter id="filter1_d_71_304" x="13.8" y="13.1" width="3.5" height="3.5" filterUnits="userSpaceOnUse" color-interpolation-filters="sRGB">
<feFlood flood-opacity="0" result="BackgroundImageFix"/>
<feColorMatrix in="SourceAlpha" type="matrix" values="0 0 0 0 0 0 0 0 0 0 0 0 0 0 0 0 0 0 127 0" result="hardAlpha"/>
<feOffset dx="1" dy="-1"/>
<feGaussianBlur stdDeviation="0.5"/>
<feComposite in2="hardAlpha" operator="out"/>
<feColorMatrix type="matrix" values="0 0 0 0 0 0 0 0 0 0 0 0 0 0 0 0 0 0 0.5 0"/>
<feBlend mode="normal" in2="BackgroundImageFix" result="effect1_dropShadow_71_304"/>
<feBlend mode="normal" in="SourceGraphic" in2="effect1_dropShadow_71_304" result="shape"/>
</filter>
<filter id="filter2_d_71_304" x="9.39996" y="8.70001" width="3.5" height="3.5" filterUnits="userSpaceOnUse" color-interpolation-filters="sRGB">
<feFlood flood-opacity="0" result="BackgroundImageFix"/>
<feColorMatrix in="SourceAlpha" type="matrix" values="0 0 0 0 0 0 0 0 0 0 0 0 0 0 0 0 0 0 127 0" result="hardAlpha"/>
<feOffset dx="1" dy="-1"/>
<feGaussianBlur stdDeviation="0.5"/>
<feComposite in2="hardAlpha" operator="out"/>
<feColorMatrix type="matrix" values="0 0 0 0 0 0 0 0 0 0 0 0 0 0 0 0 0 0 0.5 0"/>
<feBlend mode="normal" in2="BackgroundImageFix" result="effect1_dropShadow_71_304"/>
<feBlend mode="normal" in="SourceGraphic" in2="effect1_dropShadow_71_304" result="shape"/>
</filter>
<filter id="filter3_d_71_304" x="13.8" y="9.79999" width="3.5" height="3.5" filterUnits="userSpaceOnUse" color-interpolation-filters="sRGB">
<feFlood flood-opacity="0" result="BackgroundImageFix"/>
<feColorMatrix in="SourceAlpha" type="matrix" values="0 0 0 0 0 0 0 0 0 0 0 0 0 0 0 0 0 0 127 0" result="hardAlpha"/>
<feOffset dx="1" dy="-1"/>
<feGaussianBlur stdDeviation="0.5"/>
<feComposite in2="hardAlpha" operator="out"/>
<feColorMatrix type="matrix" values="0 0 0 0 0 0 0 0 0 0 0 0 0 0 0 0 0 0 0.5 0"/>
<feBlend mode="normal" in2="BackgroundImageFix" result="effect1_dropShadow_71_304"/>
<feBlend mode="normal" in="SourceGraphic" in2="effect1_dropShadow_71_304" result="shape"/>
</filter>
<filter id="filter4_d_71_304" x="10.5" y="8.70001" width="3.5" height="3.5" filterUnits="userSpaceOnUse" color-interpolation-filters="sRGB">
<feFlood flood-opacity="0" result="BackgroundImageFix"/>
<feColorMatrix in="SourceAlpha" type="matrix" values="0 0 0 0 0 0 0 0 0 0 0 0 0 0 0 0 0 0 127 0" result="hardAlpha"/>
<feOffset dx="1" dy="-1"/>
<feGaussianBlur stdDeviation="0.5"/>
<feComposite in2="hardAlpha" operator="out"/>
<feColorMatrix type="matrix" values="0 0 0 0 0 0 0 0 0 0 0 0 0 0 0 0 0 0 0.5 0"/>
<feBlend mode="normal" in2="BackgroundImageFix" result="effect1_dropShadow_71_304"/>
<feBlend mode="normal" in="SourceGraphic" in2="effect1_dropShadow_71_304" result="shape"/>
</filter>
<filter id="filter5_d_71_304" x="10.5" y="5.39996" width="3.5" height="3.5" filterUnits="userSpaceOnUse" color-interpolation-filters="sRGB">
<feFlood flood-opacity="0" result="BackgroundImageFix"/>
<feColorMatrix in="SourceAlpha" type="matrix" values="0 0 0 0 0 0 0 0 0 0 0 0 0 0 0 0 0 0 127 0" result="hardAlpha"/>
<feOffset dx="1" dy="-1"/>
<feGaussianBlur stdDeviation="0.5"/>
<feComposite in2="hardAlpha" operator="out"/>
<feColorMatrix type="matrix" values="0 0 0 0 0 0 0 0 0 0 0 0 0 0 0 0 0 0 0.5 0"/>
<feBlend mode="normal" in2="BackgroundImageFix" result="effect1_dropShadow_71_304"/>
<feBlend mode="normal" in="SourceGraphic" in2="effect1_dropShadow_71_304" result="shape"/>
</filter>
<filter id="filter6_d_71_304" x="9.39996" y="5.39996" width="3.5" height="3.5" filterUnits="userSpaceOnUse" color-interpolation-filters="sRGB">
<feFlood flood-opacity="0" result="BackgroundImageFix"/>
<feColorMatrix in="SourceAlpha" type="matrix" values="0 0 0 0 0 0 0 0 0 0 0 0 0 0 0 0 0 0 127 0" result="hardAlpha"/>
<feOffset dx="1" dy="-1"/>
<feGaussianBlur stdDeviation="0.5"/>
<feComposite in2="hardAlpha" operator="out"/>
<feColorMatrix type="matrix" values="0 0 0 0 0 0 0 0 0 0 0 0 0 0 0 0 0 0 0.5 0"/>
<feBlend mode="normal" in2="BackgroundImageFix" result="effect1_dropShadow_71_304"/>
<feBlend mode="normal" in="SourceGraphic" in2="effect1_dropShadow_71_304" result="shape"/>
</filter>
<filter id="filter7_d_71_304" x="8.29999" y="6.5" width="3.5" height="3.5" filterUnits="userSpaceOnUse" color-interpolation-filters="sRGB">
<feFlood flood-opacity="0" result="BackgroundImageFix"/>
<feColorMatrix in="SourceAlpha" type="matrix" values="0 0 0 0 0 0 0 0 0 0 0 0 0 0 0 0 0 0 127 0" result="hardAlpha"/>
<feOffset dx="1" dy="-1"/>
<feGaussianBlur stdDeviation="0.5"/>
<feComposite in2="hardAlpha" operator="out"/>
<feColorMatrix type="matrix" values="0 0 0 0 0 0 0 0 0 0 0 0 0 0 0 0 0 0 0.5 0"/>
<feBlend mode="normal" in2="BackgroundImageFix" result="effect1_dropShadow_71_304"/>
<feBlend mode="normal" in="SourceGraphic" in2="effect1_dropShadow_71_304" result="shape"/>
</filter>
<filter id="filter8_d_71_304" x="14.9" y="12" width="3.5" height="3.5" filterUnits="userSpaceOnUse" color-interpolation-filters="sRGB">
<feFlood flood-opacity="0" result="BackgroundImageFix"/>
<feColorMatrix in="SourceAlpha" type="matrix" values="0 0 0 0 0 0 0 0 0 0 0 0 0 0 0 0 0 0 127 0" result="hardAlpha"/>
<feOffset dx="1" dy="-1"/>
<feGaussianBlur stdDeviation="0.5"/>
<feComposite in2="hardAlpha" operator="out"/>
<feColorMatrix type="matrix" values="0 0 0 0 0 0 0 0 0 0 0 0 0 0 0 0 0 0 0.5 0"/>
<feBlend mode="normal" in2="BackgroundImageFix" result="effect1_dropShadow_71_304"/>
<feBlend mode="normal" in="SourceGraphic" in2="effect1_dropShadow_71_304" result="shape"/>
</filter>
<filter id="filter9_d_71_304" x="14.9" y="10.9" width="3.5" height="3.5" filterUnits="userSpaceOnUse" color-interpolation-filters="sRGB">
<feFlood flood-opacity="0" result="BackgroundImageFix"/>
<feColorMatrix in="SourceAlpha" type="matrix" values="0 0 0 0 0 0 0 0 0 0 0 0 0 0 0 0 0 0 127 0" result="hardAlpha"/>
<feOffset dx="1" dy="-1"/>
<feGaussianBlur stdDeviation="0.5"/>
<feComposite in2="hardAlpha" operator="out"/>
<feColorMatrix type="matrix" values="0 0 0 0 0 0 0 0 0 0 0 0 0 0 0 0 0 0 0.5 0"/>
<feBlend mode="normal" in2="BackgroundImageFix" result="effect1_dropShadow_71_304"/>
<feBlend mode="normal" in="SourceGraphic" in2="effect1_dropShadow_71_304" result="shape"/>
</filter>
<filter id="filter10_d_71_304" x="12.7" y="9.79999" width="3.5" height="3.5" filterUnits="userSpaceOnUse" color-interpolation-filters="sRGB">
<feFlood flood-opacity="0" result="BackgroundImageFix"/>
<feColorMatrix in="SourceAlpha" type="matrix" values="0 0 0 0 0 0 0 0 0 0 0 0 0 0 0 0 0 0 127 0" result="hardAlpha"/>
<feOffset dx="1" dy="-1"/>
<feGaussianBlur stdDeviation="0.5"/>
<feComposite in2="hardAlpha" operator="out"/>
<feColorMatrix type="matrix" values="0 0 0 0 0 0 0 0 0 0 0 0 0 0 0 0 0 0 0.5 0"/>
<feBlend mode="normal" in2="BackgroundImageFix" result="effect1_dropShadow_71_304"/>
<feBlend mode="normal" in="SourceGraphic" in2="effect1_dropShadow_71_304" result="shape"/>
</filter>
<filter id="filter11_d_71_304" x="8.29999" y="7.59998" width="3.5" height="3.5" filterUnits="userSpaceOnUse" color-interpolation-filters="sRGB">
<feFlood flood-opacity="0" result="BackgroundImageFix"/>
<feColorMatrix in="SourceAlpha" type="matrix" values="0 0 0 0 0 0 0 0 0 0 0 0 0 0 0 0 0 0 127 0" result="hardAlpha"/>
<feOffset dx="1" dy="-1"/>
<feGaussianBlur stdDeviation="0.5"/>
<feComposite in2="hardAlpha" operator="out"/>
<feColorMatrix type="matrix" values="0 0 0 0 0 0 0 0 0 0 0 0 0 0 0 0 0 0 0.5 0"/>
<feBlend mode="normal" in2="BackgroundImageFix" result="effect1_dropShadow_71_304"/>
<feBlend mode="normal" in="SourceGraphic" in2="effect1_dropShadow_71_304" result="shape"/>
</filter>
<clipPath id="clip0_71_304">
<rect width="24" height="24" fill="white"/>
</clipPath>
</defs>
</svg>
