<svg width="24" height="24" viewBox="0 0 24 24" fill="none" xmlns="http://www.w3.org/2000/svg">
<path d="M18.2432 1C19.3479 2.55246 20 4.44948 20 6.5C20 11.7467 15.7467 16 10.5 16C7.98473 16 5.69948 15.0207 4 13.4248V1H18.2432Z" fill="#C0C0C0"/>
<path d="M16.9785 1C18.2384 2.48261 19 4.40193 19 6.5C19 11.1944 15.1944 15 10.5 15C7.8917 15 5.55922 13.824 4 11.9746V1.02637C4.00731 1.0177 4.01414 1.00864 4.02148 1H16.9785Z" fill="#808080"/>
<path d="M15.5977 1C17.0749 2.36978 18 4.32657 18 6.5C18 10.6421 14.6421 14 10.5 14C7.72002 14 5.29543 12.4863 4 10.2393V2.75781C4.37793 2.10314 4.85161 1.51068 5.40234 1H15.5977Z" fill="#C0C0C0"/>
<path d="M13.9619 1C15.7867 2.15101 17 4.18309 17 6.5C17 10.0899 14.0899 13 10.5 13C6.91015 13 4 10.0899 4 6.5C4 4.18309 5.21329 2.15101 7.03809 1H13.9619Z" fill="#F5F5F5"/>
<path d="M16 6.5C16 9.53757 13.5376 12 10.5 12C7.46243 12 5 9.53757 5 6.5C5 3.46243 7.46243 1 10.5 1C13.5376 1 16 3.46243 16 6.5Z" fill="#808080"/>
<path d="M15 6.5C15 8.98528 12.9853 11 10.5 11C8.01472 11 6 8.98528 6 6.5C6 4.01472 8.01472 2 10.5 2C12.9853 2 15 4.01472 15 6.5Z" fill="#C0C0C0"/>
<path d="M14 6.5C14 8.433 12.433 10 10.5 10C8.567 10 7 8.433 7 6.5C7 4.567 8.567 3 10.5 3C12.433 3 14 4.567 14 6.5Z" fill="#F5F5F5"/>
<path d="M13 6.5C13 7.88071 11.8807 9 10.5 9C9.11929 9 8 7.88071 8 6.5C8 5.11929 9.11929 4 10.5 4C11.8807 4 13 5.11929 13 6.5Z" fill="#808080"/>
<path d="M12 6.5C12 7.32843 11.3284 8 10.5 8C9.67157 8 9 7.32843 9 6.5C9 5.67157 9.67157 5 10.5 5C11.3284 5 12 5.67157 12 6.5Z" fill="#C0C0C0"/>
<g filter="url(#filter0_d_65_190)">
<path d="M11.0526 10.1025L11.0711 10.1914L11.1492 10.208L11.1121 10.3818L13.4559 21.415L13.4529 21.416L14.0018 24H12.9842L12.7664 22.9775L11.744 24H11.0369L12.6424 22.3945L12.5213 21.8223L10.7215 20.0225L8.61505 22.1289L8.6004 22.1943L10.4061 24H9.69904L8.47638 22.7773L8.21759 24H7.20001L7.617 22.04L7.61115 22.0381L10.0526 10.5576V6H11.0526V10.1025ZM8.80548 21.2314L10.368 19.6689L9.35333 18.6543L8.80548 21.2314ZM11.075 19.6689L12.3299 20.9238L11.8895 18.8545L11.075 19.6689ZM9.47736 18.0713L10.7215 19.3154L11.7654 18.2715L11.283 16H9.91779L9.47736 18.0713ZM10.0242 15.5H11.1766L10.6004 12.7871L10.0242 15.5Z" fill="#484848"/>
</g>
<defs>
<filter id="filter0_d_65_190" x="7.20001" y="4" width="8.80176" height="20" filterUnits="userSpaceOnUse" color-interpolation-filters="sRGB">
<feFlood flood-opacity="0" result="BackgroundImageFix"/>
<feColorMatrix in="SourceAlpha" type="matrix" values="0 0 0 0 0 0 0 0 0 0 0 0 0 0 0 0 0 0 127 0" result="hardAlpha"/>
<feOffset dx="1" dy="-1"/>
<feGaussianBlur stdDeviation="0.5"/>
<feComposite in2="hardAlpha" operator="out"/>
<feColorMatrix type="matrix" values="0 0 0 0 0 0 0 0 0 0 0 0 0 0 0 0 0 0 0.5 0"/>
<feBlend mode="normal" in2="BackgroundImageFix" result="effect1_dropShadow_65_190"/>
<feBlend mode="normal" in="SourceGraphic" in2="effect1_dropShadow_65_190" result="shape"/>
</filter>
</defs>
</svg>
